<?xml version="1.0" standalone="no"?>
<!DOCTYPE svg PUBLIC "-//W3C//DTD SVG 20010904//EN"
 "http://www.w3.org/TR/2001/REC-SVG-20010904/DTD/svg10.dtd">
<svg version="1.0" xmlns="http://www.w3.org/2000/svg"
 width="512.000000pt" height="512.000000pt" viewBox="0 0 512.000000 512.000000"
 preserveAspectRatio="xMidYMid meet">

<g transform="translate(0.000000,512.000000) scale(0.100000,-0.100000)"
fill="#000000" stroke="none">
<path d="M2900 4674 c-45 -19 -77 -50 -100 -94 -20 -39 -880 -3897 -880 -3948
0 -18 7 -49 16 -70 69 -165 304 -179 384 -22 21 41 880 3898 880 3950 -1 73
-58 153 -132 184 -47 20 -122 20 -168 0z"/>
<path d="M1420 3827 c-27 -8 -168 -142 -598 -571 -332 -331 -572 -577 -585
-601 -28 -54 -28 -136 0 -190 13 -24 253 -270 585 -601 483 -481 569 -562 604
-572 63 -18 105 -14 163 14 90 45 133 139 110 239 -11 48 -28 66 -492 532
l-482 483 482 483 c464 466 481 484 492 532 39 166 -113 302 -279 252z"/>
<path d="M3531 3814 c-90 -45 -133 -139 -110 -239 11 -48 28 -66 492 -532
l482 -483 -482 -482 c-464 -467 -481 -485 -492 -533 -23 -100 20 -194 110
-239 58 -28 100 -32 163 -14 35 10 121 91 604 572 332 331 572 577 585 601 14
27 21 58 21 95 0 37 -7 68 -21 95 -13 24 -253 270 -585 601 -483 481 -569 562
-604 572 -63 18 -105 14 -163 -14z"/>
</g>
</svg>
