<svg width="64" height="64" viewBox="0 0 64 64" fill="none" xmlns="http://www.w3.org/2000/svg">
<rect width="64" height="64" rx="4" fill="#0F0A0A"/>
<rect x="7" y="7" width="50" height="50" rx="3" fill="#0F0A0A" stroke="#006699" stroke-width="2"/>
<path d="M26.3243 33.0344L15.7029 44.1869C15.139 44.7791 14.1944 44.7791 13.6304 44.1869C13.104 43.6343 13.104 42.7658 13.6304 42.2131L21.7151 33.7241C22.6347 32.7586 22.6347 31.2413 21.7151 30.2758L13.6304 21.7869C13.104 21.2342 13.104 20.3657 13.6304 19.8131C14.1944 19.2209 15.139 19.2209 15.7029 19.8131L26.3243 30.9655C26.876 31.5448 26.876 32.4551 26.3243 33.0344Z" fill="#006699" stroke="#006699"/>
<path d="M50.7568 18C51.4434 18 52 18.597 52 19.3333V26C52 26.7364 51.4434 27.3333 50.7568 27.3333H44.5405V44.6667C44.5405 45.4031 43.9839 46 43.2973 46H38.3243C37.6377 46 37.0811 45.4031 37.0811 44.6667V27.3333H30.2432C29.5566 27.3333 29 26.7364 29 26V22.824C29 22.319 29.2661 21.8573 29.6873 21.6315L36.4595 18H50.7568ZM44.5405 20.6667H37.0464L31.4865 23.6481V24.6667H39.5676V43.3333H42.0541V24.6667H44.5405V20.6667ZM49.5135 20.6667H47.027V24.6667H49.5135V20.6667Z" fill="#006699"/>
</svg>
